# xmcd
#
# Track frame offsets:
#	150
#	13749
#	33584
#	47636
#	60072
#	74908
#	91289
#	106101
#	121607
#	141035
#	157900
#	172540
#	185475
#	202664
#	218066
#	236089
#
# Disc length: 3355 seconds
#
# Revision: 1
# Processed by: cddbd v1.5.2PL0 Copyright (c) Steve Scherf et al.
# Submitted via: audiograbber 1.83.01
#
DISCID=c60d1910
DTITLE=Various Artist - Country Heat 2011
DYEAR=2010
DGENRE=Country
TTITLE0=Carrie Underwood - Undo It
TTITLE1=Brad Paisley - Water
TTITLE2=Jason Aldean - Crazy Town
TTITLE3=Gord Bamford - Put Some Alcohol On It
TTITLE4=Jerrod Niemann - Lover Lover
TTITLE5=Train - Hey Soul Sister (Country Mix)
TTITLE6=Chad Brownlee - Hood Of My Car
TTITLE7=Dean Brody - Undone
TTITLE8=Jason Blaine - Run With Me
TTITLE9=Martina McBride - Wrong Baby Wrong Baby Wrong
TTITLE10=Emerson Drive - That Kind Of Beautiful
TTITLE11=Alan Jackson - Hard Hat And A Hammer
TTITLE12=Johnny Reid - Old Flame
TTITLE13=Uncle Kracker - Smile
TTITLE14=Miranda Lambert - The House That Built Me
TTITLE15=Chris Young - The Man I Want To Be
EXTD=
EXTT0=
EXTT1=
EXTT2=
EXTT3=
EXTT4=
EXTT5=
EXTT6=
EXTT7=
EXTT8=
EXTT9=
EXTT10=
EXTT11=
EXTT12=
EXTT13=
EXTT14=
EXTT15=
PLAYORDER=
